<?xml version="1.0" encoding="UTF-8" standalone="no"?>
<!DOCTYPE svg PUBLIC "-//W3C//DTD SVG 1.1//EN"
 "http://www.w3.org/Graphics/SVG/1.1/DTD/svg11.dtd">
<!-- Generated by graphviz version 2.40.1 (20161225.0304)
 -->
<!-- Pages: 1 -->
<svg width="726pt" height="552pt"
 viewBox="0.00 0.00 725.70 551.56" xmlns="http://www.w3.org/2000/svg" xmlns:xlink="http://www.w3.org/1999/xlink">
<g id="graph0" class="graph" transform="scale(1 1) rotate(0) translate(4 547.5569)">
<polygon fill="#ffffff" stroke="transparent" points="-4,4 -4,-547.5569 721.6992,-547.5569 721.6992,4 -4,4"/>
<!-- ITouchservice&#45;&gt;ITouchservice -->
<g id="edge1" class="edge">
<title>ITouchservice&#45;&gt;ITouchservice</title>
<path fill="none" stroke="#000000" d="M430.6642,-281.0121C443.4949,-280.4189 452.8797,-278.2238 452.8797,-274.4269 452.8797,-271.7573 448.24,-269.8795 441.0251,-268.7936"/>
<polygon fill="#000000" stroke="#000000" points="440.9425,-265.2714 430.6642,-267.8417 440.302,-272.242 440.9425,-265.2714"/>
</g>
<!-- ITouchservice&#45;&gt;ITouchservice_exec -->
<g id="edge2" class="edge">
<title>ITouchservice&#45;&gt;ITouchservice_exec</title>
<path fill="none" stroke="#000000" d="M392.2144,-257.2293C425.7932,-225.8944 497.0468,-159.4024 535.8586,-123.1843"/>
<polygon fill="#000000" stroke="#000000" points="538.6997,-125.3202 543.623,-115.9388 533.9239,-120.2024 538.6997,-125.3202"/>
</g>
<!-- ITouchservice&#45;&gt;ITouchservice_tmpfs -->
<g id="edge3" class="edge">
<title>ITouchservice&#45;&gt;ITouchservice_tmpfs</title>
<path fill="none" stroke="#000000" d="M433.929,-271.2569C464.8179,-269.6289 503.1559,-267.6082 537.8307,-265.7805"/>
<polygon fill="#000000" stroke="#000000" points="538.1795,-269.2671 547.9814,-265.2455 537.811,-262.2768 538.1795,-269.2671"/>
</g>
<!-- ITouchservice&#45;&gt;binder_device -->
<g id="edge4" class="edge">
<title>ITouchservice&#45;&gt;binder_device</title>
<path fill="none" stroke="#000000" d="M362.2282,-256.7253C337.4532,-218.7775 279.1119,-129.4166 249.8843,-84.6489"/>
<polygon fill="#000000" stroke="#000000" points="252.6761,-82.5227 244.2785,-76.0627 246.8147,-86.3495 252.6761,-82.5227"/>
</g>
<!-- ITouchservice&#45;&gt;cust_file -->
<g id="edge5" class="edge">
<title>ITouchservice&#45;&gt;cust_file</title>
<path fill="none" stroke="#000000" d="M375.9806,-256.3955C381.3439,-212.3479 395.1432,-99.0159 401.5917,-46.0554"/>
<polygon fill="#000000" stroke="#000000" points="405.0802,-46.3613 402.8146,-36.0115 398.1315,-45.5151 405.0802,-46.3613"/>
</g>
<!-- ITouchservice&#45;&gt;default_hisi_hwservice_attr -->
<g id="edge6" class="edge">
<title>ITouchservice&#45;&gt;default_hisi_hwservice_attr</title>
<path fill="none" stroke="#000000" d="M338.9892,-289.2332C298.4442,-306.4857 231.1687,-335.1125 185.3242,-354.6201"/>
<polygon fill="#000000" stroke="#000000" points="183.7153,-351.501 175.8841,-358.637 186.4561,-357.9421 183.7153,-351.501"/>
</g>
<!-- ITouchservice&#45;&gt;gpu_device -->
<g id="edge7" class="edge">
<title>ITouchservice&#45;&gt;gpu_device</title>
<path fill="none" stroke="#000000" d="M377.9325,-292.4876C387.8628,-335.7313 413.0636,-445.4731 424.998,-497.4443"/>
<polygon fill="#000000" stroke="#000000" points="421.617,-498.3595 427.2664,-507.3224 428.4394,-496.7928 421.617,-498.3595"/>
</g>
<!-- ITouchservice&#45;&gt;hal_camera_server -->
<g id="edge8" class="edge">
<title>ITouchservice&#45;&gt;hal_camera_server</title>
<path fill="none" stroke="#000000" d="M396.2649,-291.3694C433.2108,-319.2145 506.8547,-374.7178 548.8766,-406.3887"/>
<polygon fill="#000000" stroke="#000000" points="546.9967,-409.3545 557.0892,-412.5782 551.2098,-403.7644 546.9967,-409.3545"/>
</g>
<!-- ITouchservice&#45;&gt;hal_graphics_allocator_default -->
<g id="edge9" class="edge">
<title>ITouchservice&#45;&gt;hal_graphics_allocator_default</title>
<path fill="none" stroke="#000000" d="M364.5699,-292.4882C344.0316,-332.7422 294.4052,-430.0072 270.1526,-477.5408"/>
<polygon fill="#000000" stroke="#000000" points="266.9464,-476.1238 265.5192,-486.6221 273.1817,-479.3052 266.9464,-476.1238"/>
</g>
<!-- ITouchservice&#45;&gt;hal_graphics_mapper_hwservice -->
<g id="edge10" class="edge">
<title>ITouchservice&#45;&gt;hal_graphics_mapper_hwservice</title>
<path fill="none" stroke="#000000" d="M331.3163,-261.4689C292.4544,-249.6113 234.4284,-231.9064 190.0897,-218.3778"/>
<polygon fill="#000000" stroke="#000000" points="190.8649,-214.9551 180.2787,-215.3843 188.822,-221.6504 190.8649,-214.9551"/>
</g>
<!-- ITouchservice -->
<g id="node1" class="node">
<title>ITouchservice</title>
<ellipse fill="#d3d3d3" stroke="#000000" cx="373.7851" cy="-274.4269" rx="61.1893" ry="18"/>
<text text-anchor="middle" x="373.7851" y="-270.7269" font-family="Times,serif" font-size="14.00" fill="#000000">ITouchservice</text>
</g>
<!-- ITouchservice_exec -->
<g id="node2" class="node">
<title>ITouchservice_exec</title>
<ellipse fill="#d3d3d3" stroke="#000000" cx="562.4064" cy="-98.4105" rx="81.4863" ry="18"/>
<text text-anchor="middle" x="562.4064" y="-94.7105" font-family="Times,serif" font-size="14.00" fill="#000000">ITouchservice_exec</text>
</g>
<!-- ITouchservice_tmpfs -->
<g id="node3" class="node">
<title>ITouchservice_tmpfs</title>
<ellipse fill="#d3d3d3" stroke="#000000" cx="631.6992" cy="-260.833" rx="86" ry="18"/>
<text text-anchor="middle" x="631.6992" y="-257.133" font-family="Times,serif" font-size="14.00" fill="#000000">ITouchservice_tmpfs</text>
</g>
<!-- binder_device -->
<g id="node4" class="node">
<title>binder_device</title>
<ellipse fill="#d3d3d3" stroke="#000000" cx="232.562" cy="-58.1165" rx="60.5" ry="18"/>
<text text-anchor="middle" x="232.562" y="-54.4165" font-family="Times,serif" font-size="14.00" fill="#000000">binder_device</text>
</g>
<!-- cust_file -->
<g id="node5" class="node">
<title>cust_file</title>
<ellipse fill="#d3d3d3" stroke="#000000" cx="405.0077" cy="-18" rx="41" ry="18"/>
<text text-anchor="middle" x="405.0077" y="-14.3" font-family="Times,serif" font-size="14.00" fill="#000000">cust_file</text>
</g>
<!-- default_hisi_hwservice_attr -->
<g id="node6" class="node">
<title>default_hisi_hwservice_attr</title>
<ellipse fill="#d3d3d3" stroke="#000000" cx="136.2373" cy="-375.5074" rx="108.5808" ry="18"/>
<text text-anchor="middle" x="136.2373" y="-371.8074" font-family="Times,serif" font-size="14.00" fill="#000000">default_hisi_hwservice_attr</text>
</g>
<!-- gpu_device -->
<g id="node7" class="node">
<title>gpu_device</title>
<ellipse fill="#d3d3d3" stroke="#000000" cx="431.4537" cy="-525.5569" rx="51.5" ry="18"/>
<text text-anchor="middle" x="431.4537" y="-521.8569" font-family="Times,serif" font-size="14.00" fill="#000000">gpu_device</text>
</g>
<!-- hal_camera_server -->
<g id="node8" class="node">
<title>hal_camera_server</title>
<ellipse fill="#d3d3d3" stroke="#000000" cx="580.1713" cy="-429.9746" rx="77.5" ry="18"/>
<text text-anchor="middle" x="580.1713" y="-426.2746" font-family="Times,serif" font-size="14.00" fill="#000000">hal_camera_server</text>
</g>
<!-- hal_graphics_allocator_default -->
<g id="node9" class="node">
<title>hal_graphics_allocator_default</title>
<ellipse fill="#d3d3d3" stroke="#000000" cx="256.3468" cy="-504.5994" rx="119.6788" ry="18"/>
<text text-anchor="middle" x="256.3468" y="-500.8994" font-family="Times,serif" font-size="14.00" fill="#000000">hal_graphics_allocator_default</text>
</g>
<!-- hal_graphics_mapper_hwservice -->
<g id="node10" class="node">
<title>hal_graphics_mapper_hwservice</title>
<ellipse fill="#d3d3d3" stroke="#000000" cx="126.7388" cy="-199.0482" rx="126.978" ry="18"/>
<text text-anchor="middle" x="126.7388" y="-195.3482" font-family="Times,serif" font-size="14.00" fill="#000000">hal_graphics_mapper_hwservice</text>
</g>
</g>
</svg>
