<?xml version="1.0" encoding="UTF-8" standalone="no"?>
<!DOCTYPE svg PUBLIC "-//W3C//DTD SVG 1.1//EN"
 "http://www.w3.org/Graphics/SVG/1.1/DTD/svg11.dtd">
<!-- Generated by graphviz version 2.40.1 (20161225.0304)
 -->
<!-- Pages: 1 -->
<svg width="1224pt" height="951pt"
 viewBox="0.00 0.00 1224.02 950.91" xmlns="http://www.w3.org/2000/svg" xmlns:xlink="http://www.w3.org/1999/xlink">
<g id="graph0" class="graph" transform="scale(1 1) rotate(0) translate(4 946.9074)">
<polygon fill="#ffffff" stroke="transparent" points="-4,4 -4,-946.9074 1220.0247,-946.9074 1220.0247,4 -4,4"/>
<!-- binder:hal_camera_default&#45;&gt;subject:ITouchservice -->
<g id="edge1" class="edge">
<title>binder:hal_camera_default&#45;&gt;subject:ITouchservice</title>
<path fill="none" stroke="#000000" d="M551.0868,-491.7282C572.0412,-417.5856 631.8662,-136.7922 646.2466,-46.291"/>
<polygon fill="#000000" stroke="#000000" points="649.7342,-46.6353 647.7693,-36.2243 642.813,-45.5883 649.7342,-46.6353"/>
</g>
<!-- binder:hal_camera_default&#45;&gt;subject:cameraserver -->
<g id="edge2" class="edge">
<title>binder:hal_camera_default&#45;&gt;subject:cameraserver</title>
<path fill="none" stroke="#000000" d="M539.2362,-491.487C516.6546,-432.0278 429.6914,-244.584 392.2165,-173.7648"/>
<polygon fill="#000000" stroke="#000000" points="395.09,-171.7186 387.2689,-164.5714 388.9259,-175.0359 395.09,-171.7186"/>
</g>
<!-- binder:hal_camera_default&#45;&gt;subject:dumpstate -->
<g id="edge3" class="edge">
<title>binder:hal_camera_default&#45;&gt;subject:dumpstate</title>
<path fill="none" stroke="#000000" d="M571.4694,-492.3889C635.6442,-444.7537 795.8275,-313.0229 856.5884,-257.9654"/>
<polygon fill="#000000" stroke="#000000" points="859.149,-260.3661 864.1535,-251.0277 854.4178,-255.207 859.149,-260.3661"/>
</g>
<!-- binder:hal_camera_default&#45;&gt;subject:hal_hwfacerecognize_default -->
<g id="edge4" class="edge">
<title>binder:hal_camera_default&#45;&gt;subject:hal_hwfacerecognize_default</title>
<path fill="none" stroke="#000000" d="M648.9208,-512.4901C732.8134,-511.7194 851.1181,-508.6557 941.6811,-504.986"/>
<polygon fill="#000000" stroke="#000000" points="941.8985,-508.4801 951.7457,-504.5709 941.6099,-501.4861 941.8985,-508.4801"/>
</g>
<!-- binder:hal_camera_default&#45;&gt;subject:hal_hwsecurity_default -->
<g id="edge5" class="edge">
<title>binder:hal_camera_default&#45;&gt;subject:hal_hwsecurity_default</title>
<path fill="none" stroke="#000000" d="M618.4836,-522.6642C694.9827,-532.6313 815.6751,-545.6151 906.6977,-553.8604"/>
<polygon fill="#000000" stroke="#000000" points="906.5326,-557.3595 916.8054,-554.7673 907.1582,-550.3875 906.5326,-557.3595"/>
</g>
<!-- binder:hal_camera_default&#45;&gt;subject:hiaiserver -->
<g id="edge6" class="edge">
<title>binder:hal_camera_default&#45;&gt;subject:hiaiserver</title>
<path fill="none" stroke="#000000" d="M576.8148,-492.5647C628.1113,-460.165 726.828,-390.7515 773.9003,-353.954"/>
<polygon fill="#000000" stroke="#000000" points="776.136,-356.648 781.7992,-347.6937 771.7881,-351.1621 776.136,-356.648"/>
</g>
<!-- binder:hal_camera_default&#45;&gt;subject:hivrar -->
<g id="edge7" class="edge">
<title>binder:hal_camera_default&#45;&gt;subject:hivrar</title>
<path fill="none" stroke="#000000" d="M557.0495,-527.7693C605.0356,-585.8095 775.3601,-767.8913 842.9717,-833.9288"/>
<polygon fill="#000000" stroke="#000000" points="840.6967,-836.5976 850.3184,-841.0331 845.5628,-831.5655 840.6967,-836.5976"/>
</g>
<!-- binder:hal_camera_default&#45;&gt;subject:hwservicehost -->
<g id="edge8" class="edge">
<title>binder:hal_camera_default&#45;&gt;subject:hwservicehost</title>
<path fill="none" stroke="#000000" d="M542.6145,-527.9508C542.173,-592.0068 556.5723,-808.0722 566.1816,-886.2291"/>
<polygon fill="#000000" stroke="#000000" points="562.7332,-886.8519 567.5036,-896.3119 569.6738,-885.9417 562.7332,-886.8519"/>
</g>
<!-- binder:hal_camera_default&#45;&gt;subject:hwservicemanager -->
<g id="edge9" class="edge">
<title>binder:hal_camera_default&#45;&gt;subject:hwservicemanager</title>
<path fill="none" stroke="#000000" d="M514.2719,-492.4664C441.5548,-456.2516 255.5375,-373.681 161.3162,-335.4183"/>
<polygon fill="#000000" stroke="#000000" points="162.5249,-332.1319 151.9416,-331.6366 159.9061,-338.6236 162.5249,-332.1319"/>
</g>
<!-- binder:hal_camera_default&#45;&gt;subject:platform_app -->
<g id="edge10" class="edge">
<title>binder:hal_camera_default&#45;&gt;subject:platform_app</title>
<path fill="none" stroke="#000000" d="M483.278,-524.6402C395.3498,-550.4024 235.0546,-602.6803 155.8682,-631.5496"/>
<polygon fill="#000000" stroke="#000000" points="154.3402,-628.3824 146.1649,-635.1215 156.7584,-634.9515 154.3402,-628.3824"/>
</g>
<!-- binder:hal_camera_default&#45;&gt;subject:priv_app -->
<g id="edge11" class="edge">
<title>binder:hal_camera_default&#45;&gt;subject:priv_app</title>
<path fill="none" stroke="#000000" d="M528.8016,-527.8683C479.8481,-593.5239 330.8168,-819.5459 284.6086,-897.9286"/>
<polygon fill="#000000" stroke="#000000" points="281.4901,-896.3292 279.4969,-906.7349 287.5441,-899.8434 281.4901,-896.3292"/>
</g>
<!-- binder:hal_camera_default&#45;&gt;subject:system_app -->
<g id="edge12" class="edge">
<title>binder:hal_camera_default&#45;&gt;subject:system_app</title>
<path fill="none" stroke="#000000" d="M478.4152,-524.0253C418.3899,-540.4479 331.3197,-567.0798 278.3524,-585.3544"/>
<polygon fill="#000000" stroke="#000000" points="277.16,-582.0634 268.8733,-588.665 279.4682,-588.672 277.16,-582.0634"/>
</g>
<!-- binder:hal_camera_default&#45;&gt;subject:system_server -->
<g id="edge13" class="edge">
<title>binder:hal_camera_default&#45;&gt;subject:system_server</title>
<path fill="none" stroke="#000000" d="M517.8335,-492.263C443.7927,-449.5836 234.3517,-341.4909 138.2796,-295.997"/>
<polygon fill="#000000" stroke="#000000" points="139.6071,-292.7537 129.0684,-291.6652 136.6281,-299.0882 139.6071,-292.7537"/>
</g>
<!-- subject:ITouchservice&#45;&gt;binder:hal_camera_default -->
<g id="edge14" class="edge">
<title>subject:ITouchservice&#45;&gt;binder:hal_camera_default</title>
<path fill="none" stroke="#000000" d="M642.1566,-36.0993C621.2022,-110.2418 561.3772,-391.0353 546.9968,-481.5365"/>
<polygon fill="#000000" stroke="#000000" points="543.5092,-481.1922 545.4741,-491.6032 550.4304,-482.2392 543.5092,-481.1922"/>
</g>
<!-- subject:cameraserver&#45;&gt;binder:hal_camera_default -->
<g id="edge15" class="edge">
<title>subject:cameraserver&#45;&gt;binder:hal_camera_default</title>
<path fill="none" stroke="#000000" d="M380.3257,-164.6768C402.9074,-224.136 489.8706,-411.5798 527.3455,-482.399"/>
<polygon fill="#000000" stroke="#000000" points="524.472,-484.4452 532.293,-491.5924 530.6361,-481.1279 524.472,-484.4452"/>
</g>
<!-- subject:dumpstate&#45;&gt;binder:hal_camera_default -->
<g id="edge16" class="edge">
<title>subject:dumpstate&#45;&gt;binder:hal_camera_default</title>
<path fill="none" stroke="#000000" d="M853.8808,-250.4311C790.2748,-297.5683 630.0874,-429.2722 568.7398,-484.782"/>
<polygon fill="#000000" stroke="#000000" points="566.1045,-482.4494 561.092,-491.7835 570.8313,-487.6125 566.1045,-482.4494"/>
</g>
<!-- subject:hal_hwfacerecognize_default&#45;&gt;binder:hal_camera_default -->
<g id="edge17" class="edge">
<title>subject:hal_hwfacerecognize_default&#45;&gt;binder:hal_camera_default</title>
<path fill="none" stroke="#000000" d="M933.5477,-493.2217C844.4164,-494.5441 731.059,-497.7954 649.7106,-501.4491"/>
<polygon fill="#000000" stroke="#000000" points="649.2818,-497.965 639.4529,-501.92 649.6029,-504.9576 649.2818,-497.965"/>
</g>
<!-- subject:hal_hwsecurity_default&#45;&gt;binder:hal_camera_default -->
<g id="edge18" class="edge">
<title>subject:hal_hwsecurity_default&#45;&gt;binder:hal_camera_default</title>
<path fill="none" stroke="#000000" d="M951.0266,-547.334C870.6973,-536.9962 745.8717,-523.6866 655.7048,-515.7158"/>
<polygon fill="#000000" stroke="#000000" points="655.9817,-512.2268 645.7148,-514.8424 655.3719,-519.2002 655.9817,-512.2268"/>
</g>
<!-- subject:hiaiserver&#45;&gt;binder:hal_camera_default -->
<g id="edge19" class="edge">
<title>subject:hiaiserver&#45;&gt;binder:hal_camera_default</title>
<path fill="none" stroke="#000000" d="M768.8951,-346.5897C718.0927,-378.5569 618.4337,-448.5934 570.8376,-485.7654"/>
<polygon fill="#000000" stroke="#000000" points="568.5168,-483.1387 562.8493,-492.0903 572.8621,-488.6268 568.5168,-483.1387"/>
</g>
<!-- subject:hivrar&#45;&gt;binder:hal_camera_default -->
<g id="edge20" class="edge">
<title>subject:hivrar&#45;&gt;binder:hal_camera_default</title>
<path fill="none" stroke="#000000" d="M858.1648,-840.1347C810.4029,-782.3658 641.4434,-601.7117 573.1971,-534.9086"/>
<polygon fill="#000000" stroke="#000000" points="575.3839,-532.1538 565.768,-527.7058 570.5113,-537.1795 575.3839,-532.1538"/>
</g>
<!-- subject:hwservicehost&#45;&gt;binder:hal_camera_default -->
<g id="edge21" class="edge">
<title>subject:hwservicehost&#45;&gt;binder:hal_camera_default</title>
<path fill="none" stroke="#000000" d="M573.5765,-896.6211C574.0181,-832.5652 559.6188,-616.4998 550.0095,-538.3429"/>
<polygon fill="#000000" stroke="#000000" points="553.4578,-537.7201 548.6874,-528.2601 546.5173,-538.6302 553.4578,-537.7201"/>
</g>
<!-- subject:hwservicemanager&#45;&gt;binder:hal_camera_default -->
<g id="edge22" class="edge">
<title>subject:hwservicemanager&#45;&gt;binder:hal_camera_default</title>
<path fill="none" stroke="#000000" d="M134.9431,-332.8798C207.6602,-369.0947 393.6775,-451.6652 487.8988,-489.9279"/>
<polygon fill="#000000" stroke="#000000" points="486.6901,-493.2143 497.2734,-493.7096 489.309,-486.7226 486.6901,-493.2143"/>
</g>
<!-- subject:platform_app&#45;&gt;binder:hal_camera_default -->
<g id="edge23" class="edge">
<title>subject:platform_app&#45;&gt;binder:hal_camera_default</title>
<path fill="none" stroke="#000000" d="M166.0792,-637.8163C252.6352,-612.6257 415.6047,-559.538 496.4328,-530.1292"/>
<polygon fill="#000000" stroke="#000000" points="497.6911,-533.3958 505.8721,-526.6637 495.2784,-526.8247 497.6911,-533.3958"/>
</g>
<!-- subject:priv_app&#45;&gt;binder:hal_camera_default -->
<g id="edge24" class="edge">
<title>subject:priv_app&#45;&gt;binder:hal_camera_default</title>
<path fill="none" stroke="#000000" d="M286.3355,-907.1333C335.0713,-841.8408 484.3867,-615.4015 530.695,-536.8613"/>
<polygon fill="#000000" stroke="#000000" points="533.824,-538.4427 535.818,-528.0372 527.7702,-534.9281 533.824,-538.4427"/>
</g>
<!-- subject:system_app&#45;&gt;binder:hal_camera_default -->
<g id="edge25" class="edge">
<title>subject:system_app&#45;&gt;binder:hal_camera_default</title>
<path fill="none" stroke="#000000" d="M290.8479,-592.4168C350.0649,-576.4504 440.3086,-548.9628 495.6464,-529.9735"/>
<polygon fill="#000000" stroke="#000000" points="496.9232,-533.2352 505.2224,-526.6493 494.6276,-526.6224 496.9232,-533.2352"/>
</g>
<!-- subject:system_server&#45;&gt;binder:hal_camera_default -->
<g id="edge26" class="edge">
<title>subject:system_server&#45;&gt;binder:hal_camera_default</title>
<path fill="none" stroke="#000000" d="M115.262,-292.8869C188.706,-335.2603 397.2299,-442.904 493.9715,-488.787"/>
<polygon fill="#000000" stroke="#000000" points="492.7169,-492.0649 503.255,-493.1606 495.7003,-485.7324 492.7169,-492.0649"/>
</g>
<!-- subject:hal_camera_default -->
<g id="node1" class="node">
<title>subject:hal_camera_default</title>
<ellipse fill="#b7bbff" stroke="#000000" cx="938" cy="-101" rx="108" ry="18"/>
<text text-anchor="middle" x="938" y="-97.3" font-family="Times,serif" font-size="14.00" fill="#000000">subject:hal_camera_default</text>
</g>
<!-- binder:hal_camera_default -->
<g id="node2" class="node">
<title>binder:hal_camera_default</title>
<ellipse fill="#ff0000" stroke="#000000" cx="544.3867" cy="-509.8274" rx="105.5" ry="18"/>
<text text-anchor="middle" x="544.3867" y="-506.1274" font-family="Times,serif" font-size="14.00" fill="#000000">binder:hal_camera_default</text>
</g>
<!-- subject:ITouchservice -->
<g id="node3" class="node">
<title>subject:ITouchservice</title>
<ellipse fill="#d3d3d3" stroke="#000000" cx="648.8567" cy="-18" rx="88.5" ry="18"/>
<text text-anchor="middle" x="648.8567" y="-14.3" font-family="Times,serif" font-size="14.00" fill="#000000">subject:ITouchservice</text>
</g>
<!-- subject:cameraserver -->
<g id="node4" class="node">
<title>subject:cameraserver</title>
<ellipse fill="#d3d3d3" stroke="#000000" cx="375.1752" cy="-146.3364" rx="85.2851" ry="18"/>
<text text-anchor="middle" x="375.1752" y="-142.6364" font-family="Times,serif" font-size="14.00" fill="#000000">subject:cameraserver</text>
</g>
<!-- subject:dumpstate -->
<g id="node5" class="node">
<title>subject:dumpstate</title>
<ellipse fill="#d3d3d3" stroke="#000000" cx="880.3984" cy="-233.4117" rx="74.9875" ry="18"/>
<text text-anchor="middle" x="880.3984" y="-229.7117" font-family="Times,serif" font-size="14.00" fill="#000000">subject:dumpstate</text>
</g>
<!-- subject:hal_hwfacerecognize_default -->
<g id="node6" class="node">
<title>subject:hal_hwfacerecognize_default</title>
<ellipse fill="#d3d3d3" stroke="#000000" cx="1074.3373" cy="-495.4429" rx="141.8751" ry="18"/>
<text text-anchor="middle" x="1074.3373" y="-491.7429" font-family="Times,serif" font-size="14.00" fill="#000000">subject:hal_hwfacerecognize_default</text>
</g>
<!-- subject:hal_hwsecurity_default -->
<g id="node7" class="node">
<title>subject:hal_hwsecurity_default</title>
<ellipse fill="#d3d3d3" stroke="#000000" cx="1030.4847" cy="-560.8649" rx="120.4791" ry="18"/>
<text text-anchor="middle" x="1030.4847" y="-557.1649" font-family="Times,serif" font-size="14.00" fill="#000000">subject:hal_hwsecurity_default</text>
</g>
<!-- subject:hiaiserver -->
<g id="node8" class="node">
<title>subject:hiaiserver</title>
<ellipse fill="#d3d3d3" stroke="#000000" cx="800.0348" cy="-330.1392" rx="73" ry="18"/>
<text text-anchor="middle" x="800.0348" y="-326.4392" font-family="Times,serif" font-size="14.00" fill="#000000">subject:hiaiserver</text>
</g>
<!-- subject:hivrar -->
<g id="node9" class="node">
<title>subject:hivrar</title>
<ellipse fill="#d3d3d3" stroke="#000000" cx="870.8276" cy="-858.0766" rx="59.2899" ry="18"/>
<text text-anchor="middle" x="870.8276" y="-854.3766" font-family="Times,serif" font-size="14.00" fill="#000000">subject:hivrar</text>
</g>
<!-- subject:hwservicehost -->
<g id="node10" class="node">
<title>subject:hwservicehost</title>
<ellipse fill="#d3d3d3" stroke="#000000" cx="571.8043" cy="-914.7446" rx="88.5" ry="18"/>
<text text-anchor="middle" x="571.8043" y="-911.0446" font-family="Times,serif" font-size="14.00" fill="#000000">subject:hwservicehost</text>
</g>
<!-- subject:hwservicemanager -->
<g id="node11" class="node">
<title>subject:hwservicemanager</title>
<ellipse fill="#d3d3d3" stroke="#000000" cx="104.8283" cy="-315.5188" rx="104.7816" ry="18"/>
<text text-anchor="middle" x="104.8283" y="-311.8188" font-family="Times,serif" font-size="14.00" fill="#000000">subject:hwservicemanager</text>
</g>
<!-- subject:platform_app -->
<g id="node12" class="node">
<title>subject:platform_app</title>
<ellipse fill="#d3d3d3" stroke="#000000" cx="109.0514" cy="-651.4373" rx="86" ry="18"/>
<text text-anchor="middle" x="109.0514" y="-647.7373" font-family="Times,serif" font-size="14.00" fill="#000000">subject:platform_app</text>
</g>
<!-- subject:priv_app -->
<g id="node13" class="node">
<title>subject:priv_app</title>
<ellipse fill="#d3d3d3" stroke="#000000" cx="270.9494" cy="-924.9074" rx="69.5877" ry="18"/>
<text text-anchor="middle" x="270.9494" y="-921.2074" font-family="Times,serif" font-size="14.00" fill="#000000">subject:priv_app</text>
</g>
<!-- subject:system_app -->
<g id="node14" class="node">
<title>subject:system_app</title>
<ellipse fill="#d3d3d3" stroke="#000000" cx="231.9912" cy="-604.6819" rx="80" ry="18"/>
<text text-anchor="middle" x="231.9912" y="-600.9819" font-family="Times,serif" font-size="14.00" fill="#000000">subject:system_app</text>
</g>
<!-- subject:system_server -->
<g id="node15" class="node">
<title>subject:system_server</title>
<ellipse fill="#d3d3d3" stroke="#000000" cx="89.0421" cy="-275.5148" rx="89.0842" ry="18"/>
<text text-anchor="middle" x="89.0421" y="-271.8148" font-family="Times,serif" font-size="14.00" fill="#000000">subject:system_server</text>
</g>
</g>
</svg>
