<?xml version="1.0" encoding="UTF-8" standalone="no"?>
<!DOCTYPE svg PUBLIC "-//W3C//DTD SVG 1.1//EN"
 "http://www.w3.org/Graphics/SVG/1.1/DTD/svg11.dtd">
<!-- Generated by graphviz version 2.40.1 (20161225.0304)
 -->
<!-- Pages: 1 -->
<svg width="1123pt" height="1005pt"
 viewBox="0.00 0.00 1123.19 1004.65" xmlns="http://www.w3.org/2000/svg" xmlns:xlink="http://www.w3.org/1999/xlink">
<g id="graph0" class="graph" transform="scale(1 1) rotate(0) translate(4 1000.6501)">
<polygon fill="#ffffff" stroke="transparent" points="-4,4 -4,-1000.6501 1119.1926,-1000.6501 1119.1926,4 -4,4"/>
<!-- subject:hal_camera_default&#45;&gt;binder:hal_camera_default_w -->
<g id="edge1" class="edge">
<title>subject:hal_camera_default&#45;&gt;binder:hal_camera_default_w</title>
<path fill="none" stroke="#000000" d="M933.8011,-714.1678C835.2819,-674.756 589.0903,-576.2691 481.7842,-533.3422"/>
<polygon fill="#000000" stroke="#000000" points="483.0404,-530.0752 472.4558,-529.6105 480.4404,-536.5744 483.0404,-530.0752"/>
</g>
<!-- binder:hal_camera_default_w&#45;&gt;subject:ITouchservice -->
<g id="edge2" class="edge">
<title>binder:hal_camera_default_w&#45;&gt;subject:ITouchservice</title>
<path fill="none" stroke="#000000" d="M546.814,-514.4093C657.8382,-515.9445 823.2417,-518.2317 927.987,-519.6801"/>
<polygon fill="#000000" stroke="#000000" points="928.1975,-523.1832 938.245,-519.8219 928.2943,-516.1839 928.1975,-523.1832"/>
</g>
<!-- binder:hal_camera_default_w&#45;&gt;subject:cameraserver -->
<g id="edge3" class="edge">
<title>binder:hal_camera_default_w&#45;&gt;subject:cameraserver</title>
<path fill="none" stroke="#000000" d="M449.5314,-530.7609C514.9476,-592.2836 730.1145,-794.6442 805.5607,-865.6"/>
<polygon fill="#000000" stroke="#000000" points="803.555,-868.5184 813.2374,-872.8198 808.3507,-863.4192 803.555,-868.5184"/>
</g>
<!-- binder:hal_camera_default_w&#45;&gt;subject:dumpstate -->
<g id="edge4" class="edge">
<title>binder:hal_camera_default_w&#45;&gt;subject:dumpstate</title>
<path fill="none" stroke="#000000" d="M438.4184,-530.7764C470.1024,-602.1105 587.0949,-865.5097 625.2375,-951.3847"/>
<polygon fill="#000000" stroke="#000000" points="622.1291,-953.0089 629.3871,-960.7272 628.5265,-950.1674 622.1291,-953.0089"/>
</g>
<!-- binder:hal_camera_default_w&#45;&gt;subject:hal_hwfacerecognize_default -->
<g id="edge5" class="edge">
<title>binder:hal_camera_default_w&#45;&gt;subject:hal_hwfacerecognize_default</title>
<path fill="none" stroke="#000000" d="M420.3378,-531.1372C387.8821,-590.0853 286.0914,-774.964 247.4328,-845.1782"/>
<polygon fill="#000000" stroke="#000000" points="244.1678,-843.8516 242.4107,-854.2997 250.2999,-847.2278 244.1678,-843.8516"/>
</g>
<!-- binder:hal_camera_default_w&#45;&gt;subject:hal_hwsecurity_default -->
<g id="edge6" class="edge">
<title>binder:hal_camera_default_w&#45;&gt;subject:hal_hwsecurity_default</title>
<path fill="none" stroke="#000000" d="M430.1846,-530.9261C429.2218,-600.9474 425.7406,-854.1138 424.5651,-939.5992"/>
<polygon fill="#000000" stroke="#000000" points="421.0622,-939.7972 424.4243,-949.8444 428.0615,-939.8935 421.0622,-939.7972"/>
</g>
<!-- binder:hal_camera_default_w&#45;&gt;subject:hiaiserver -->
<g id="edge7" class="edge">
<title>binder:hal_camera_default_w&#45;&gt;subject:hiaiserver</title>
<path fill="none" stroke="#000000" d="M399.7954,-530.3011C340.5862,-564.1222 210.6001,-638.372 145.9388,-675.3074"/>
<polygon fill="#000000" stroke="#000000" points="143.8361,-672.4777 136.8889,-680.4769 147.3081,-678.556 143.8361,-672.4777"/>
</g>
<!-- binder:hal_camera_default_w&#45;&gt;subject:hivrar -->
<g id="edge8" class="edge">
<title>binder:hal_camera_default_w&#45;&gt;subject:hivrar</title>
<path fill="none" stroke="#000000" d="M324.5342,-505.1429C260.9727,-500.5471 182.0125,-494.8379 126.8132,-490.8467"/>
<polygon fill="#000000" stroke="#000000" points="127.0182,-487.3525 116.7918,-490.1221 126.5134,-494.3343 127.0182,-487.3525"/>
</g>
<!-- binder:hal_camera_default_w&#45;&gt;subject:hwservicehost -->
<g id="edge9" class="edge">
<title>binder:hal_camera_default_w&#45;&gt;subject:hwservicehost</title>
<path fill="none" stroke="#000000" d="M439.3512,-494.603C476.0765,-419.6596 615.7489,-134.6377 659.6304,-45.091"/>
<polygon fill="#000000" stroke="#000000" points="662.7785,-46.6207 664.036,-36.1007 656.4926,-43.5403 662.7785,-46.6207"/>
</g>
<!-- binder:hal_camera_default_w&#45;&gt;subject:hwservicemanager -->
<g id="edge10" class="edge">
<title>binder:hal_camera_default_w&#45;&gt;subject:hwservicemanager</title>
<path fill="none" stroke="#000000" d="M422.597,-494.7549C394.223,-429.4214 296.7384,-204.9548 262.6337,-126.4257"/>
<polygon fill="#000000" stroke="#000000" points="265.8098,-124.9526 258.6159,-117.1745 259.3891,-127.741 265.8098,-124.9526"/>
</g>
<!-- binder:hal_camera_default_w&#45;&gt;subject:platform_app -->
<g id="edge11" class="edge">
<title>binder:hal_camera_default_w&#45;&gt;subject:platform_app</title>
<path fill="none" stroke="#000000" d="M407.4824,-495.0809C354.2284,-453.9677 222.243,-352.0722 162.2144,-305.7289"/>
<polygon fill="#000000" stroke="#000000" points="164.2918,-302.911 154.2374,-299.5704 160.0141,-308.4519 164.2918,-302.911"/>
</g>
<!-- binder:hal_camera_default_w&#45;&gt;subject:priv_app -->
<g id="edge12" class="edge">
<title>binder:hal_camera_default_w&#45;&gt;subject:priv_app</title>
<path fill="none" stroke="#000000" d="M431.7784,-494.7972C436.9107,-426.0736 455.2946,-179.9092 461.5662,-95.9309"/>
<polygon fill="#000000" stroke="#000000" points="465.0644,-96.0842 462.319,-85.8513 458.0839,-95.5628 465.0644,-96.0842"/>
</g>
<!-- binder:hal_camera_default_w&#45;&gt;subject:system_app -->
<g id="edge13" class="edge">
<title>binder:hal_camera_default_w&#45;&gt;subject:system_app</title>
<path fill="none" stroke="#000000" d="M475.9931,-496.1242C579.5869,-458.2064 832.2544,-365.7239 941.3849,-325.7795"/>
<polygon fill="#000000" stroke="#000000" points="942.678,-329.0333 950.8656,-322.3093 940.2719,-322.4598 942.678,-329.0333"/>
</g>
<!-- binder:hal_camera_default_w&#45;&gt;subject:system_server -->
<g id="edge14" class="edge">
<title>binder:hal_camera_default_w&#45;&gt;subject:system_server</title>
<path fill="none" stroke="#000000" d="M450.9341,-494.831C519.7391,-434.5217 742.5311,-239.2388 821.5067,-170.0146"/>
<polygon fill="#000000" stroke="#000000" points="823.9096,-172.5627 829.1226,-163.3391 819.2955,-167.2986 823.9096,-172.5627"/>
</g>
<!-- subject:ITouchservice&#45;&gt;binder:hal_camera_default_r -->
<g id="edge15" class="edge">
<title>subject:ITouchservice&#45;&gt;binder:hal_camera_default_r</title>
<path fill="none" stroke="#000000" d="M941.9884,-515.6067C893.2452,-512.4773 831.3309,-508.5023 778.2607,-505.095"/>
<polygon fill="#000000" stroke="#000000" points="778.3196,-501.5917 768.1158,-504.4437 777.871,-508.5773 778.3196,-501.5917"/>
</g>
<!-- subject:cameraserver&#45;&gt;binder:hal_camera_default_r -->
<g id="edge16" class="edge">
<title>subject:cameraserver&#45;&gt;binder:hal_camera_default_r</title>
<path fill="none" stroke="#000000" d="M824.195,-872.2976C797.1833,-809.3512 707.4404,-600.2201 675.1553,-524.9849"/>
<polygon fill="#000000" stroke="#000000" points="678.3249,-523.4957 671.165,-515.6863 671.8922,-526.2561 678.3249,-523.4957"/>
</g>
<!-- subject:dumpstate&#45;&gt;binder:hal_camera_default_r -->
<g id="edge17" class="edge">
<title>subject:dumpstate&#45;&gt;binder:hal_camera_default_r</title>
<path fill="none" stroke="#000000" d="M638.3394,-960.3845C642.3141,-887.1726 657.1096,-614.6449 661.929,-525.8726"/>
<polygon fill="#000000" stroke="#000000" points="665.4312,-525.9266 662.4785,-515.7516 658.4415,-525.5471 665.4312,-525.9266"/>
</g>
<!-- subject:hal_hwfacerecognize_default&#45;&gt;binder:hal_camera_default_r -->
<g id="edge18" class="edge">
<title>subject:hal_hwfacerecognize_default&#45;&gt;binder:hal_camera_default_r</title>
<path fill="none" stroke="#000000" d="M252.8388,-854.7711C323.1336,-793.6474 554.4875,-592.4772 635.2981,-522.2096"/>
<polygon fill="#000000" stroke="#000000" points="637.8292,-524.647 643.0788,-515.4441 633.236,-519.3646 637.8292,-524.647"/>
</g>
<!-- subject:hal_hwsecurity_default&#45;&gt;binder:hal_camera_default_r -->
<g id="edge19" class="edge">
<title>subject:hal_hwsecurity_default&#45;&gt;binder:hal_camera_default_r</title>
<path fill="none" stroke="#000000" d="M433.4079,-949.8743C470.0857,-877.786 605.6177,-611.4049 649.5864,-524.9866"/>
<polygon fill="#000000" stroke="#000000" points="652.8359,-526.3183 654.2512,-515.8184 646.5969,-523.1439 652.8359,-526.3183"/>
</g>
<!-- subject:hiaiserver&#45;&gt;binder:hal_camera_default_r -->
<g id="edge20" class="edge">
<title>subject:hiaiserver&#45;&gt;binder:hal_camera_default_r</title>
<path fill="none" stroke="#000000" d="M149.6136,-682.0798C248.338,-646.6597 496.1691,-557.7436 607.6246,-517.7559"/>
<polygon fill="#000000" stroke="#000000" points="609.105,-520.9432 617.3356,-514.2718 606.7411,-514.3545 609.105,-520.9432"/>
</g>
<!-- subject:hivrar&#45;&gt;binder:hal_camera_default_r -->
<g id="edge21" class="edge">
<title>subject:hivrar&#45;&gt;binder:hal_camera_default_r</title>
<path fill="none" stroke="#000000" d="M118.1891,-487.104C215.7815,-489.0048 412.7036,-492.8404 541.2572,-495.3443"/>
<polygon fill="#000000" stroke="#000000" points="541.4813,-498.8492 551.5476,-495.5447 541.6177,-491.8505 541.4813,-498.8492"/>
</g>
<!-- subject:hwservicehost&#45;&gt;binder:hal_camera_default_r -->
<g id="edge22" class="edge">
<title>subject:hwservicehost&#45;&gt;binder:hal_camera_default_r</title>
<path fill="none" stroke="#000000" d="M672.5473,-36.22C671.1105,-109.1668 665.7664,-380.4846 664.0161,-469.347"/>
<polygon fill="#000000" stroke="#000000" points="660.5141,-469.4192 663.8164,-479.4862 667.5128,-469.5571 660.5141,-469.4192"/>
</g>
<!-- subject:hwservicemanager&#45;&gt;binder:hal_camera_default_r -->
<g id="edge23" class="edge">
<title>subject:hwservicemanager&#45;&gt;binder:hal_camera_default_r</title>
<path fill="none" stroke="#000000" d="M269.2732,-116.9398C335.5416,-180.9555 560.8499,-398.605 637.603,-472.7491"/>
<polygon fill="#000000" stroke="#000000" points="635.3488,-475.4378 644.9728,-479.8683 640.2122,-470.4032 635.3488,-475.4378"/>
</g>
<!-- subject:platform_app&#45;&gt;binder:hal_camera_default_r -->
<g id="edge24" class="edge">
<title>subject:platform_app&#45;&gt;binder:hal_camera_default_r</title>
<path fill="none" stroke="#000000" d="M171.1567,-298.137C266.0522,-336.6093 506.6424,-434.1489 612.3333,-476.9979"/>
<polygon fill="#000000" stroke="#000000" points="611.2465,-480.3339 621.8289,-480.8475 613.8766,-473.8468 611.2465,-480.3339"/>
</g>
<!-- subject:priv_app&#45;&gt;binder:hal_camera_default_r -->
<g id="edge25" class="edge">
<title>subject:priv_app&#45;&gt;binder:hal_camera_default_r</title>
<path fill="none" stroke="#000000" d="M472.01,-85.5577C503.1697,-152.6414 612.9985,-389.0918 650.6665,-470.1872"/>
<polygon fill="#000000" stroke="#000000" points="647.7048,-472.1196 655.0918,-479.7146 654.0534,-469.1707 647.7048,-472.1196"/>
</g>
<!-- subject:system_app&#45;&gt;binder:hal_camera_default_r -->
<g id="edge26" class="edge">
<title>subject:system_app&#45;&gt;binder:hal_camera_default_r</title>
<path fill="none" stroke="#000000" d="M963.7396,-323.8283C904.3165,-358.2408 769.4347,-436.352 702.556,-475.0819"/>
<polygon fill="#000000" stroke="#000000" points="700.4851,-472.2367 693.5854,-480.2769 703.9931,-478.2942 700.4851,-472.2367"/>
</g>
<!-- subject:system_server&#45;&gt;binder:hal_camera_default_r -->
<g id="edge27" class="edge">
<title>subject:system_server&#45;&gt;binder:hal_camera_default_r</title>
<path fill="none" stroke="#000000" d="M840.0975,-163.3607C809.6741,-220.9493 714.4082,-401.2789 677.8964,-470.3924"/>
<polygon fill="#000000" stroke="#000000" points="674.7237,-468.9052 673.1472,-479.3821 680.9131,-472.175 674.7237,-468.9052"/>
</g>
<!-- binder:hal_camera_default_r&#45;&gt;subject:hal_camera_default -->
<g id="edge28" class="edge">
<title>binder:hal_camera_default_r&#45;&gt;subject:hal_camera_default</title>
<path fill="none" stroke="#000000" d="M687.1809,-515.4435C742.6345,-556.8613 880.7894,-660.048 943.6404,-706.9908"/>
<polygon fill="#000000" stroke="#000000" points="941.8863,-710.0492 951.9927,-713.2291 946.0752,-704.4409 941.8863,-710.0492"/>
</g>
<!-- subject:hal_camera_default -->
<g id="node1" class="node">
<title>subject:hal_camera_default</title>
<ellipse fill="#b7bbff" stroke="#000000" cx="975.6804" cy="-730.9212" rx="108" ry="18"/>
<text text-anchor="middle" x="975.6804" y="-727.2212" font-family="Times,serif" font-size="14.00" fill="#000000">subject:hal_camera_default</text>
</g>
<!-- binder:hal_camera_default_w -->
<g id="node2" class="node">
<title>binder:hal_camera_default_w</title>
<ellipse fill="#ff0000" stroke="#000000" cx="430.4339" cy="-512.8" rx="116.5" ry="18"/>
<text text-anchor="middle" x="430.4339" y="-509.1" font-family="Times,serif" font-size="14.00" fill="#000000">binder:hal_camera_default_w</text>
</g>
<!-- subject:ITouchservice -->
<g id="node3" class="node">
<title>subject:ITouchservice</title>
<ellipse fill="#d3d3d3" stroke="#000000" cx="1026.6926" cy="-521.0449" rx="88.5" ry="18"/>
<text text-anchor="middle" x="1026.6926" y="-517.3449" font-family="Times,serif" font-size="14.00" fill="#000000">subject:ITouchservice</text>
</g>
<!-- subject:cameraserver -->
<g id="node4" class="node">
<title>subject:cameraserver</title>
<ellipse fill="#d3d3d3" stroke="#000000" cx="831.9855" cy="-890.4521" rx="85.2851" ry="18"/>
<text text-anchor="middle" x="831.9855" y="-886.7521" font-family="Times,serif" font-size="14.00" fill="#000000">subject:cameraserver</text>
</g>
<!-- subject:dumpstate -->
<g id="node5" class="node">
<title>subject:dumpstate</title>
<ellipse fill="#d3d3d3" stroke="#000000" cx="637.3478" cy="-978.6501" rx="74.9875" ry="18"/>
<text text-anchor="middle" x="637.3478" y="-974.9501" font-family="Times,serif" font-size="14.00" fill="#000000">subject:dumpstate</text>
</g>
<!-- subject:hal_hwfacerecognize_default -->
<g id="node6" class="node">
<title>subject:hal_hwfacerecognize_default</title>
<ellipse fill="#d3d3d3" stroke="#000000" cx="232.3349" cy="-872.5999" rx="141.8751" ry="18"/>
<text text-anchor="middle" x="232.3349" y="-868.8999" font-family="Times,serif" font-size="14.00" fill="#000000">subject:hal_hwfacerecognize_default</text>
</g>
<!-- subject:hal_hwsecurity_default -->
<g id="node7" class="node">
<title>subject:hal_hwsecurity_default</title>
<ellipse fill="#d3d3d3" stroke="#000000" cx="424.1743" cy="-968.0223" rx="120.4791" ry="18"/>
<text text-anchor="middle" x="424.1743" y="-964.3223" font-family="Times,serif" font-size="14.00" fill="#000000">subject:hal_hwsecurity_default</text>
</g>
<!-- subject:hiaiserver -->
<g id="node8" class="node">
<title>subject:hiaiserver</title>
<ellipse fill="#d3d3d3" stroke="#000000" cx="107.8529" cy="-697.0626" rx="73" ry="18"/>
<text text-anchor="middle" x="107.8529" y="-693.3626" font-family="Times,serif" font-size="14.00" fill="#000000">subject:hiaiserver</text>
</g>
<!-- subject:hivrar -->
<g id="node9" class="node">
<title>subject:hivrar</title>
<ellipse fill="#d3d3d3" stroke="#000000" cx="59.1448" cy="-485.9539" rx="59.2899" ry="18"/>
<text text-anchor="middle" x="59.1448" y="-482.2539" font-family="Times,serif" font-size="14.00" fill="#000000">subject:hivrar</text>
</g>
<!-- subject:hwservicehost -->
<g id="node10" class="node">
<title>subject:hwservicehost</title>
<ellipse fill="#d3d3d3" stroke="#000000" cx="672.9061" cy="-18" rx="88.5" ry="18"/>
<text text-anchor="middle" x="672.9061" y="-14.3" font-family="Times,serif" font-size="14.00" fill="#000000">subject:hwservicehost</text>
</g>
<!-- subject:hwservicemanager -->
<g id="node11" class="node">
<title>subject:hwservicemanager</title>
<ellipse fill="#d3d3d3" stroke="#000000" cx="250.7378" cy="-99.0344" rx="104.7816" ry="18"/>
<text text-anchor="middle" x="250.7378" y="-95.3344" font-family="Times,serif" font-size="14.00" fill="#000000">subject:hwservicemanager</text>
</g>
<!-- subject:platform_app -->
<g id="node12" class="node">
<title>subject:platform_app</title>
<ellipse fill="#d3d3d3" stroke="#000000" cx="131.6167" cy="-282.1068" rx="86" ry="18"/>
<text text-anchor="middle" x="131.6167" y="-278.4068" font-family="Times,serif" font-size="14.00" fill="#000000">subject:platform_app</text>
</g>
<!-- subject:priv_app -->
<g id="node13" class="node">
<title>subject:priv_app</title>
<ellipse fill="#d3d3d3" stroke="#000000" cx="463.6802" cy="-67.6245" rx="69.5877" ry="18"/>
<text text-anchor="middle" x="463.6802" y="-63.9245" font-family="Times,serif" font-size="14.00" fill="#000000">subject:priv_app</text>
</g>
<!-- subject:system_app -->
<g id="node14" class="node">
<title>subject:system_app</title>
<ellipse fill="#d3d3d3" stroke="#000000" cx="992.9828" cy="-306.8934" rx="80" ry="18"/>
<text text-anchor="middle" x="992.9828" y="-303.1934" font-family="Times,serif" font-size="14.00" fill="#000000">subject:system_app</text>
</g>
<!-- subject:system_server -->
<g id="node15" class="node">
<title>subject:system_server</title>
<ellipse fill="#d3d3d3" stroke="#000000" cx="849.5834" cy="-145.4047" rx="89.0842" ry="18"/>
<text text-anchor="middle" x="849.5834" y="-141.7047" font-family="Times,serif" font-size="14.00" fill="#000000">subject:system_server</text>
</g>
<!-- binder:hal_camera_default_r -->
<g id="node16" class="node">
<title>binder:hal_camera_default_r</title>
<ellipse fill="#ff0000" stroke="#000000" cx="663.4572" cy="-497.7244" rx="112.5" ry="18"/>
<text text-anchor="middle" x="663.4572" y="-494.0244" font-family="Times,serif" font-size="14.00" fill="#000000">binder:hal_camera_default_r</text>
</g>
</g>
</svg>
