<?xml version="1.0" encoding="UTF-8" standalone="no"?>
<!DOCTYPE svg PUBLIC "-//W3C//DTD SVG 1.1//EN"
 "http://www.w3.org/Graphics/SVG/1.1/DTD/svg11.dtd">
<!-- Generated by graphviz version 2.40.1 (20161225.0304)
 -->
<!-- Pages: 1 -->
<svg width="584pt" height="486pt"
 viewBox="0.00 0.00 583.97 485.86" xmlns="http://www.w3.org/2000/svg" xmlns:xlink="http://www.w3.org/1999/xlink">
<g id="graph0" class="graph" transform="scale(1 1) rotate(0) translate(4 481.8647)">
<polygon fill="#ffffff" stroke="transparent" points="-4,4 -4,-481.8647 579.9682,-481.8647 579.9682,4 -4,4"/>
<!-- ITouchservice&#45;&gt;crash_dump -->
<g id="edge1" class="edge">
<title>ITouchservice&#45;&gt;crash_dump</title>
<path fill="none" stroke="#000000" d="M380.8076,-142.3964C368.5814,-161.4713 349.1774,-191.7446 335.2374,-213.4931"/>
<polygon fill="#000000" stroke="#000000" points="332.2695,-211.6377 329.8198,-221.9454 338.1628,-215.4151 332.2695,-211.6377"/>
</g>
<!-- ITouchservice&#45;&gt;ITouchservice_tmpfs -->
<g id="edge2" class="edge">
<title>ITouchservice&#45;&gt;ITouchservice_tmpfs</title>
<path fill="none" stroke="#000000" d="M402.6099,-106.3058C412.1423,-89.5001 426.4818,-64.2195 437.3787,-45.0083"/>
<polygon fill="#000000" stroke="#000000" points="440.5259,-46.5536 442.4153,-36.1286 434.4372,-43.1 440.5259,-46.5536"/>
</g>
<!-- activityrecognition&#45;&gt;crash_dump -->
<g id="edge3" class="edge">
<title>activityrecognition&#45;&gt;crash_dump</title>
<path fill="none" stroke="#000000" d="M225.7756,-278.9867C241.2025,-272.4667 259.1454,-264.8834 275.1037,-258.1388"/>
<polygon fill="#000000" stroke="#000000" points="276.8947,-261.1817 284.7433,-254.0648 274.1696,-254.7339 276.8947,-261.1817"/>
</g>
<!-- activityrecognition&#45;&gt;netutils_wrapper -->
<g id="edge4" class="edge">
<title>activityrecognition&#45;&gt;netutils_wrapper</title>
<path fill="none" stroke="#000000" d="M174.442,-276.7317C163.3086,-261.9283 147.4479,-240.8392 134.9748,-224.2545"/>
<polygon fill="#000000" stroke="#000000" points="137.6118,-221.9378 128.8039,-216.0495 132.0174,-226.1453 137.6118,-221.9378"/>
</g>
<!-- activityrecognition&#45;&gt;activityrecognition_tmpfs -->
<g id="edge5" class="edge">
<title>activityrecognition&#45;&gt;activityrecognition_tmpfs</title>
<path fill="none" stroke="#000000" d="M171.1057,-312.8333C158.2564,-326.3804 140.4478,-345.1559 126.1328,-360.2482"/>
<polygon fill="#000000" stroke="#000000" points="123.3525,-358.0935 119.0101,-367.7576 128.4314,-362.9108 123.3525,-358.0935"/>
</g>
<!-- adbd&#45;&gt;crash_dump -->
<g id="edge6" class="edge">
<title>adbd&#45;&gt;crash_dump</title>
<path fill="none" stroke="#000000" d="M407.7775,-321.571C390.8126,-306.0749 364.1945,-281.7615 344.4012,-263.6819"/>
<polygon fill="#000000" stroke="#000000" points="346.6622,-261.0068 336.9183,-256.8468 341.9413,-266.1753 346.6622,-261.0068"/>
</g>
<!-- adbd&#45;&gt;shell -->
<g id="edge7" class="edge">
<title>adbd&#45;&gt;shell</title>
<path fill="none" stroke="#000000" d="M452.5079,-338.3951C469.7686,-339.4333 492.0752,-340.7751 510.837,-341.9036"/>
<polygon fill="#000000" stroke="#000000" points="510.6489,-345.3985 520.841,-342.5053 511.0693,-338.4111 510.6489,-345.3985"/>
</g>
<!-- adbd&#45;&gt;adbd_tmpfs -->
<g id="edge8" class="edge">
<title>adbd&#45;&gt;adbd_tmpfs</title>
<path fill="none" stroke="#000000" d="M426.7328,-354.8742C429.3897,-375.0676 433.7137,-407.9313 436.8165,-431.5137"/>
<polygon fill="#000000" stroke="#000000" points="433.3711,-432.159 438.1458,-441.6169 440.3113,-431.2458 433.3711,-432.159"/>
</g>
<!-- aee_aed&#45;&gt;crash_dump -->
<g id="edge9" class="edge">
<title>aee_aed&#45;&gt;crash_dump</title>
<path fill="none" stroke="#000000" d="M241.432,-174.3991C255.4602,-186.3424 274.7973,-202.8054 290.5708,-216.2345"/>
<polygon fill="#000000" stroke="#000000" points="288.5643,-219.123 298.4475,-222.9406 293.1021,-213.793 288.5643,-219.123"/>
</g>
<!-- aee_aed&#45;&gt;netutils_wrapper -->
<g id="edge10" class="edge">
<title>aee_aed&#45;&gt;netutils_wrapper</title>
<path fill="none" stroke="#000000" d="M192.1069,-169.6362C183.5732,-172.825 174.0681,-176.3768 164.7356,-179.8641"/>
<polygon fill="#000000" stroke="#000000" points="163.263,-176.6779 155.1208,-183.4569 165.7133,-183.2351 163.263,-176.6779"/>
</g>
<!-- ITouchservice -->
<g id="node1" class="node">
<title>ITouchservice</title>
<ellipse fill="#d3d3d3" stroke="#000000" cx="392.3773" cy="-124.3459" rx="61.1893" ry="18"/>
<text text-anchor="middle" x="392.3773" y="-120.6459" font-family="Times,serif" font-size="14.00" fill="#000000">ITouchservice</text>
</g>
<!-- crash_dump -->
<g id="node2" class="node">
<title>crash_dump</title>
<ellipse fill="#d3d3d3" stroke="#000000" cx="318.3314" cy="-239.8692" rx="54" ry="18"/>
<text text-anchor="middle" x="318.3314" y="-236.1692" font-family="Times,serif" font-size="14.00" fill="#000000">crash_dump</text>
</g>
<!-- ITouchservice_tmpfs -->
<g id="node3" class="node">
<title>ITouchservice_tmpfs</title>
<ellipse fill="#d3d3d3" stroke="#000000" cx="452.6982" cy="-18" rx="86" ry="18"/>
<text text-anchor="middle" x="452.6982" y="-14.3" font-family="Times,serif" font-size="14.00" fill="#000000">ITouchservice_tmpfs</text>
</g>
<!-- activityrecognition -->
<g id="node4" class="node">
<title>activityrecognition</title>
<ellipse fill="#d3d3d3" stroke="#000000" cx="188.1103" cy="-294.9055" rx="77.5" ry="18"/>
<text text-anchor="middle" x="188.1103" y="-291.2055" font-family="Times,serif" font-size="14.00" fill="#000000">activityrecognition</text>
</g>
<!-- netutils_wrapper -->
<g id="node5" class="node">
<title>netutils_wrapper</title>
<ellipse fill="#d3d3d3" stroke="#000000" cx="115.4425" cy="-198.2836" rx="69.5877" ry="18"/>
<text text-anchor="middle" x="115.4425" y="-194.5836" font-family="Times,serif" font-size="14.00" fill="#000000">netutils_wrapper</text>
</g>
<!-- activityrecognition_tmpfs -->
<g id="node6" class="node">
<title>activityrecognition_tmpfs</title>
<ellipse fill="#d3d3d3" stroke="#000000" cx="102.0409" cy="-385.6482" rx="102.0819" ry="18"/>
<text text-anchor="middle" x="102.0409" y="-381.9482" font-family="Times,serif" font-size="14.00" fill="#000000">activityrecognition_tmpfs</text>
</g>
<!-- adbd -->
<g id="node7" class="node">
<title>adbd</title>
<ellipse fill="#d3d3d3" stroke="#000000" cx="424.3416" cy="-336.7009" rx="28" ry="18"/>
<text text-anchor="middle" x="424.3416" y="-333.0009" font-family="Times,serif" font-size="14.00" fill="#000000">adbd</text>
</g>
<!-- shell -->
<g id="node8" class="node">
<title>shell</title>
<ellipse fill="#d3d3d3" stroke="#000000" cx="548.4682" cy="-344.1671" rx="27.5" ry="18"/>
<text text-anchor="middle" x="548.4682" y="-340.4671" font-family="Times,serif" font-size="14.00" fill="#000000">shell</text>
</g>
<!-- adbd_tmpfs -->
<g id="node9" class="node">
<title>adbd_tmpfs</title>
<ellipse fill="#d3d3d3" stroke="#000000" cx="440.5467" cy="-459.8647" rx="52.7911" ry="18"/>
<text text-anchor="middle" x="440.5467" y="-456.1647" font-family="Times,serif" font-size="14.00" fill="#000000">adbd_tmpfs</text>
</g>
<!-- aee_aed -->
<g id="node10" class="node">
<title>aee_aed</title>
<ellipse fill="#d3d3d3" stroke="#000000" cx="222.4985" cy="-158.2796" rx="39" ry="18"/>
<text text-anchor="middle" x="222.4985" y="-154.5796" font-family="Times,serif" font-size="14.00" fill="#000000">aee_aed</text>
</g>
</g>
</svg>
